<?xml version="1.0" encoding="utf-8"?>
<!-- Generator: Adobe Illustrator 22.1.0, SVG Export Plug-In . SVG Version: 6.00 Build 0)  -->
<svg version="1.1" id="Layer_1" xmlns="http://www.w3.org/2000/svg" xmlns:xlink="http://www.w3.org/1999/xlink" x="0px" y="0px"
	 viewBox="0 0 750 750" style="enable-background:new 0 0 750 750;" xml:space="preserve">
<style type="text/css">
	.st0{enable-background:new    ;}
	.st1{fill:#FFFFFF;}
</style>
<g class="st0">
	<path class="st1" d="M689.1,103.9v558.6c0,19.2-15.5,34.8-34.8,34.8H494.4V453.9h81.4l12.3-94.9h-93.6v-60.5
		c0-27.4,7.4-45.8,47-45.8l49.9-0.4v-84.7c-8.6-1.2-38.4-3.7-72.8-3.7c-72.4,0-122.3,44.2-122.3,125.1V359h-81.8v94.9h81.8v243.3
		H95.7c-19.2,0-34.8-15.5-34.8-34.8V103.9c0-19.2,15.5-34.8,34.8-34.8h558.6C673.5,69.1,689.1,84.6,689.1,103.9z"/>
</g>
</svg>
