<?xml version="1.0" encoding="utf-8"?>
<!-- Generator: Adobe Illustrator 22.1.0, SVG Export Plug-In . SVG Version: 6.00 Build 0)  -->
<svg version="1.1" id="Layer_1" xmlns="http://www.w3.org/2000/svg" xmlns:xlink="http://www.w3.org/1999/xlink" x="0px" y="0px"
	 viewBox="0 0 628.2 750" style="enable-background:new 0 0 628.2 750;" xml:space="preserve">
<style type="text/css">
	.st0{enable-background:new    ;}
	.st1{fill:#FFFFFF;}
</style>
<title>ig</title>
<g class="st0">
	<path class="st1" d="M626.1,512.8c-2.5,50.3-13.9,94.9-50.7,131.7s-81.4,48.3-131.7,50.7c-43.3,2.5-86.3,2-129.6,2
		c-43.3,0-86.3,0.4-129.6-2c-50.3-2.5-94.9-13.9-131.7-50.7C16,607.7,4.5,563.1,2.1,512.8c-2.5-43.3-2-86.3-2-129.6
		c0-43.3-0.4-86.3,2-129.6c2.5-50.3,13.9-94.9,50.7-131.7C89.6,85,134.2,73.6,184.5,71.1c43.3-2.5,86.3-2,129.6-2
		c43.3,0,86.3-0.4,129.6,2c50.3,2.5,94.9,13.9,131.7,50.7c36.8,36.8,48.3,81.4,50.7,131.7c2.5,43.3,2,86.3,2,129.6
		C628.2,426.5,628.6,469.5,626.1,512.8z M128.8,138.2c-14.3,5.7-24.9,12.7-36,23.7c-11,11-18,21.7-23.7,36
		c-16.4,41.3-12.7,139.5-12.7,185.3c0,45.8-3.7,144,12.7,185.3c5.7,14.3,12.7,24.9,23.7,36c11,11,21.7,18,36,23.7
		c41.3,16.4,139.5,12.7,185.3,12.7c45.8,0,144,3.7,185.3-12.7c14.3-5.7,24.9-12.7,36-23.7c11-11,18-21.7,23.7-36
		c16.4-41.3,12.7-139.5,12.7-185.3c0-45.8,3.7-144-12.7-185.3c-5.7-14.3-12.7-24.9-23.7-36c-11-11-21.7-18-36-23.7
		c-41.3-16.4-139.5-12.7-185.3-12.7C268.3,125.5,170.1,121.9,128.8,138.2z M314.1,544.3c-89.2,0-161.1-72-161.1-161.1
		c0-89.2,72-161.1,161.1-161.1c89.2,0,161.1,72,161.1,161.1C475.2,472.3,403.2,544.3,314.1,544.3z M314.1,278.5
		c-57.7,0-104.7,47-104.7,104.7c0,57.7,47,104.7,104.7,104.7c57.7,0,104.7-47,104.7-104.7C418.8,325.5,371.8,278.5,314.1,278.5z
		 M481.8,253.1c-20.9,0-37.6-16.8-37.6-37.6s16.8-37.6,37.6-37.6s37.6,16.8,37.6,37.6S502.6,253.1,481.8,253.1z"/>
</g>
</svg>
