<?xml version="1.0" encoding="utf-8"?>
<!-- Generator: Adobe Illustrator 22.1.0, SVG Export Plug-In . SVG Version: 6.00 Build 0)  -->
<svg version="1.1" id="Layer_1" xmlns="http://www.w3.org/2000/svg" xmlns:xlink="http://www.w3.org/1999/xlink" x="0px" y="0px"
	 viewBox="0 0 750 750" style="enable-background:new 0 0 750 750;" xml:space="preserve">
<style type="text/css">
	.st0{enable-background:new    ;}
	.st1{fill:#FFFFFF;}
</style>
<g class="st0">
	<path class="st1" d="M637.8,650.6c-7,29-30.5,50.3-58.8,53.3c-67.6,7.7-136,7.7-204,7.7c-68,0-136.3,0-204-7.7
		c-28.3-2.9-52.2-24.3-58.8-53.3c-9.6-41.2-9.6-86.4-9.6-128.6c0-42.6,0.4-87.5,9.6-128.6c7-29,30.5-50.3,59.2-53.7
		c67.3-7.4,135.6-7.4,203.6-7.4c68,0,136.3,0,204,7.4c28.3,3.3,52.2,24.6,58.8,53.7c9.6,41.2,9.6,86,9.6,128.6
		C647.3,564.3,647,609.5,637.8,650.6z M258.1,430.5v-34.5H143.5v34.5h38.6v209.1h36.8V430.5H258.1z M318,53.1l-44.5,146.6v99.6
		h-36.8v-99.6c-3.3-18-10.7-43.7-22.4-77.9c-8.1-22.8-16.2-45.9-23.9-68.7h39l26.1,96.7l25-96.7H318z M357.4,639.6V458h-32.7V597
		c-7.4,10.3-14.3,15.4-20.9,15.4c-4.4,0-7-2.6-7.7-7.7c-0.4-1.1-0.4-5.1-0.4-12.9V458h-32.7v143.7c0,12.9,1.1,21.3,2.9,26.8
		c2.9,9.2,10.7,13.6,21.3,13.6c11.8,0,24.3-7.4,37.5-22.4v19.8H357.4z M416.5,239.7c0,19.5-3.3,34.2-10.3,43.4
		c-9.2,12.5-22.1,18.7-39,18.7c-16.5,0-29.4-6.2-38.6-18.7c-7-9.6-10.3-23.9-10.3-43.4v-64.3c0-19.5,3.3-33.8,10.3-43
		c9.2-12.5,22.1-18.7,38.6-18.7c16.9,0,29.8,6.2,39,18.7c7,9.2,10.3,23.5,10.3,43V239.7z M383.1,168.8c0-16.9-4.8-25.4-15.8-25.4
		c-10.7,0-15.8,8.5-15.8,25.4V246c0,16.9,5.1,25.7,15.8,25.7c11,0,15.8-8.8,15.8-25.7V168.8z M482.3,512.8c0-16.9-0.7-29-3.3-36.4
		c-4-13.6-13.2-20.6-26.1-20.6c-12.1,0-23.5,6.6-34.2,19.8v-79.7H386v243.7h32.7V622c11,13.6,22.4,20.2,34.2,20.2
		c12.9,0,22-7,26.1-20.2c2.6-7.7,3.3-19.8,3.3-36.8V512.8z M449.6,587.8c0,16.5-4.8,24.6-14.3,24.6c-5.5,0-11-2.6-16.5-8.1V493.7
		c5.5-5.5,11-8.1,16.5-8.1c9.6,0,14.3,8.5,14.3,24.6V587.8z M539.6,299.3h-33.4v-20.2c-13.2,15.4-25.7,22.8-37.9,22.8
		c-10.7,0-18.4-4.4-21.7-13.6c-1.8-5.5-2.9-14.3-2.9-27.6V115.9h33.4v134.9c0,7.7,0,12.1,0.4,12.9c0.7,5.1,3.3,8.1,7.7,8.1
		c6.6,0,13.6-5.1,20.9-15.8v-140h33.4V299.3z M606.5,576.8h-33.4c0,13.2-0.4,20.6-0.7,22.4c-1.8,8.8-6.6,13.2-14.7,13.2
		c-11.4,0-16.9-8.5-16.9-25.4v-32h65.8v-37.9c0-19.5-3.3-33.4-9.9-42.6c-9.6-12.5-22.4-18.7-39-18.7c-16.9,0-29.8,6.2-39.3,18.7
		c-7,9.2-10.3,23.2-10.3,42.6v63.6c0,19.5,3.7,33.8,10.7,42.6c9.6,12.5,22.4,18.7,39.7,18.7c17.3,0,30.9-6.6,39.7-19.5
		c4-5.9,7-12.5,7.7-19.8c0.7-3.3,0.7-10.7,0.7-21.3V576.8z M573.8,527.5h-33.1v-16.9c0-16.5,5.5-25,16.5-25s16.5,8.5,16.5,25V527.5z
		"/>
</g>
</svg>
